<svg width="240" height="160" viewBox="0 0 240 160" fill="none" xmlns="http://www.w3.org/2000/svg">
  <rect width="240" height="160" rx="8" fill="#F5F5F7"/>
  <path d="M120 76C112.268 76 106 82.268 106 90C106 97.732 112.268 104 120 104C127.732 104 134 97.732 134 90C134 82.268 127.732 76 120 76ZM117 95V85L127 90L117 95Z" fill="#DDDDE5"/>
  <path d="M120 56C98.0037 56 80 74.0037 80 96C80 117.996 98.0037 136 120 136C141.996 136 160 117.996 160 96C160 74.0037 141.996 56 120 56ZM120 124C104.57 124 92 111.43 92 96C92 80.57 104.57 68 120 68C135.43 68 148 80.57 148 96C148 111.43 135.43 124 120 124Z" fill="#DDDDE5"/>
</svg>