<svg xmlns="http://www.w3.org/2000/svg" viewBox="0 0 512 512" width="512" height="512">
  <!-- Blue outer circle -->
  <circle cx="256" cy="256" r="240" fill="#0040FF" />
  
  <!-- Inner light background -->
  <circle cx="256" cy="256" r="200" fill="#E0E7FF" />
  
  <!-- Chart line -->
  <path d="M150 300 L200 280 L250 290 L300 260 L350 230 L400 190" 
        stroke="#00D1C7" 
        stroke-width="6" 
        fill="none" 
        stroke-linecap="round" />
  
  <!-- Question mark icon -->
  <circle cx="400" cy="190" r="18" fill="#00D1C7" stroke="#00877A" stroke-width="2" />
  <path d="M400 184 Q400 178 394 178 Q388 178 388 184 Q388 190 394 193 L394 198" 
        stroke="#004052" 
        stroke-width="3" 
        fill="none" 
        stroke-linecap="round" />
  <circle cx="394" cy="204" r="2" fill="#004052" />
  
  <!-- Building/chart bars -->
  <path d="M150 340 L150 300 L170 300 L170 340 Z" fill="#004052" />
  <path d="M190 340 L190 280 L210 280 L210 340 Z" fill="#004052" />
  <path d="M230 340 L230 270 L250 270 L250 340 Z" fill="#004052" />
  <path d="M270 340 L270 260 L290 260 L290 340 Z" fill="#004052" />
  <path d="M310 340 L310 250 L330 250 L330 340 Z" fill="#004052" />
  
  <!-- Teal outline on buildings -->
  <path d="M150 300 L170 300 L170 340 L150 340 Z" fill="none" stroke="#00D1C7" stroke-width="1.5" />
  <path d="M190 280 L210 280 L210 340 L190 340 Z" fill="none" stroke="#00D1C7" stroke-width="1.5" />
  <path d="M230 270 L250 270 L250 340 L230 340 Z" fill="none" stroke="#00D1C7" stroke-width="1.5" />
  <path d="M270 260 L290 260 L290 340 L270 340 Z" fill="none" stroke="#00D1C7" stroke-width="1.5" />
  <path d="M310 250 L330 250 L330 340 L310 340 Z" fill="none" stroke="#00D1C7" stroke-width="1.5" />
</svg>