<?xml version="1.0" encoding="UTF-8"?>
<svg width="256px" height="256px" viewBox="0 0 256 256" version="1.1" xmlns="http://www.w3.org/2000/svg" preserveAspectRatio="xMidYMid">
    <title>Binance Coin</title>
    <g>
        <path d="M128,0 C198.6912,0 256,57.3088 256,128 C256,198.6912 198.6912,256 128,256 C57.3088,256 0,198.6912 0,128 C0,57.3088 57.3088,0 128,0 Z" fill="#F3BA2F"></path>
        <path d="M127.911636,51.2 L127.911636,51.2 L153.065118,76.3091636 L95.3036364,134.132364 L70.1965091,109.025282 L127.911636,51.2 Z M127.911636,114.288291 L127.911636,114.288291 L153.065118,139.397527 L127.911636,164.506764 L102.8,139.397527 L127.911636,114.288291 Z M153.065118,139.397527 L153.065118,139.397527 L178.225745,114.288291 L203.337309,139.397527 L178.225745,164.506764 L153.065118,139.397527 Z M178.225745,76.3091636 L178.225745,76.3091636 L203.337309,101.418255 L161.049891,143.629527 L135.939473,118.520291 L178.225745,76.3091636 Z M77.9271273,101.418255 L77.9271273,101.418255 L102.981382,76.3091636 L145.267636,118.520291 L120.157382,143.629527 L77.9271273,101.418255 Z" fill="#FFFFFF"></path>
    </g>
</svg>