<?xml version="1.0" encoding="UTF-8"?>
<svg width="256px" height="256px" viewBox="0 0 256 256" version="1.1" xmlns="http://www.w3.org/2000/svg" preserveAspectRatio="xMidYMid">
    <title>CPXTB Token</title>
    <g>
        <circle cx="128" cy="128" r="128" fill="#26C6DA"/>
        <path d="M157.789,64 L98.2106,64 C89.3815,64 82.1053,71.2762 82.1053,80.1053 L82.1053,175.895 C82.1053,184.724 89.3815,192 98.2106,192 L157.789,192 C166.618,192 173.895,184.724 173.895,175.895 L173.895,80.1053 C173.895,71.2762 166.618,64 157.789,64 Z M154.526,88.6316 L134.737,88.6316 C132.826,88.6316 131.263,87.0693 131.263,85.1579 C131.263,83.2465 132.826,81.6842 134.737,81.6842 L154.526,81.6842 C156.437,81.6842 158,83.2465 158,85.1579 C158,87.0693 156.437,88.6316 154.526,88.6316 Z M128,174.632 C117.7,174.632 109.474,166.406 109.474,156.105 C109.474,145.805 117.7,137.579 128,137.579 C138.3,137.579 146.526,145.805 146.526,156.105 C146.526,166.406 138.3,174.632 128,174.632 Z M156.105,118.695 C156.105,119.651 155.335,120.421 154.379,120.421 L101.621,120.421 C100.665,120.421 99.8947,119.651 99.8947,118.695 L99.8947,81.4316 C99.8947,80.4754 100.665,79.7053 101.621,79.7053 L154.379,79.7053 C155.335,79.7053 156.105,80.4754 156.105,81.4316 L156.105,118.695 Z" fill="white"></path>
    </g>
</svg>